<?xml version="1.0" encoding="UTF-8"?>
<svg id="Layer_1" xmlns="http://www.w3.org/2000/svg" version="1.1" viewBox="0 0 20 20">
  <!-- Generator: Adobe Illustrator 30.5.1, SVG Export Plug-In . SVG Version: 2.1.4 Build 3)  -->
  <defs>
    <style>
      .st0 {
        fill: #071119;
      }

      .st1 {
        fill: #00d492;
      }
    </style>
  </defs>
  <rect class="st0" width="20" height="20" rx="3.743" ry="3.743"/>
  <path class="st1" d="M18.195,5.961c-.076-.183-.222-.329-.405-.405-.082-.034-.17-.049-.258-.052-.01,0-.019-.006-.029-.006h-4.502c-.414,0-.75.336-.75.75s.336.75.75.75h2.69l-4.566,4.566-3.221-3.221c-.141-.141-.331-.22-.531-.22s-.39.079-.531.22L1.967,13.221c-.293.293-.293.768,0,1.06.146.147.339.22.531.22s.384-.073.531-.22l4.346-4.346,3.221,3.221c.281.281.779.281,1.061,0l5.097-5.097v2.691c0,.415.336.75.75.75s.75-.336.75-.75v-4.499c0-.099-.02-.197-.058-.29Z"/>
</svg>