<?xml version="1.0" encoding="UTF-8"?>
<svg id="Layer_1" xmlns="http://www.w3.org/2000/svg" version="1.1" viewBox="0 0 20 20">
  <!-- Generator: Adobe Illustrator 30.5.1, SVG Export Plug-In . SVG Version: 2.1.4 Build 3)  -->
  <defs>
    <style>
      .st0 {
        fill: #071119;
      }

      .st1 {
        fill: #00d492;
      }
    </style>
  </defs>
  <rect class="st0" width="20" height="20"/>
  <path class="st1" d="M17.273,6.415c-.068-.163-.197-.292-.36-.36-.073-.03-.151-.043-.229-.046-.009,0-.017-.005-.026-.005h-3.995c-.368,0-.666.298-.666.666s.298.666.666.666h2.388l-4.052,4.052-2.858-2.859c-.125-.125-.294-.195-.471-.195s-.346.07-.471.195l-4.329,4.329c-.26.26-.26.681,0,.941.13.13.3.195.471.195s.341-.065.471-.195l3.858-3.857,2.858,2.858c.25.25.692.25.942,0l4.524-4.524v2.388c0,.368.298.666.666.666s.666-.298.666-.666v-3.993c0-.088-.017-.175-.052-.257Z"/>
</svg>